Coordinates
version=1
nRows=60
nColumns=12
inDegrees=yes

Units are S.I. units (second, meters, Newtons, ...)
Angles are in degrees

endheader
time	SC_y	SC_z	SC_x	AC_y	AC_z	AC_x	GH_y	GH_z	GH_yy	EL_x	PS_y
       0.0              -18.95          26.02          78.31          64.79          3.275          9.717          151.8          27.23          73.93           94.2          6.726
   0.03002              -18.95          26.02           78.3          64.79          3.276          9.715          151.8          27.23          73.91           94.2          6.748
   0.06005              -18.95          26.02          78.29          64.79          3.277          9.712          151.8          27.23          73.89          94.21          6.771
   0.09007              -18.96          26.01          78.29          64.78          3.278          9.709          151.8          27.23          73.87          94.21          6.796
    0.1201              -18.96          26.01          78.28          64.78          3.279          9.706          151.8          27.23          73.85          94.22          6.822
    0.1501              -18.97          26.01          78.27          64.78          3.281          9.703          151.8          27.23          73.82          94.22           6.85
    0.1801              -18.97           26.0          78.26          64.78          3.282          9.699          151.8          27.23           73.8          94.23           6.88
    0.2102              -18.98           26.0          78.25          64.77          3.283          9.696          151.8          27.23          73.77          94.24          6.912
    0.2402              -18.98          25.99          78.24          64.77          3.285          9.692          151.9          27.23          73.74          94.24          6.946
    0.2702              -18.99          25.99          78.23          64.77          3.287          9.688          151.9          27.23          73.71          94.25          6.982
    0.3002               -19.0          25.99          78.21          64.77          3.288          9.683          151.9          27.23          73.68          94.26          7.022
    0.3303               -19.0          25.98           78.2          64.76           3.29          9.678          151.9          27.23          73.65          94.27          7.064
    0.3603              -19.01          25.97          78.19          64.76          3.292          9.673          151.9          27.23          73.61          94.28           7.11
    0.3903              -19.02          25.97          78.17          64.75          3.294          9.667          151.9          27.23          73.57          94.29          7.159
    0.4203              -19.03          25.96          78.15          64.75          3.297          9.661          151.9          27.23          73.52           94.3          7.212
    0.4504              -19.04          25.95          78.14          64.74          3.299          9.654          151.9          27.23          73.47          94.31           7.27
    0.4804              -19.05          25.95          78.12          64.74          3.302          9.647          151.9          27.23          73.42          94.33          7.333
    0.5104              -19.06          25.94          78.09          64.73          3.305          9.639          151.9          27.23          73.36          94.34          7.402
    0.5404              -19.07          25.93          78.07          64.73          3.309          9.631          151.9          27.23           73.3          94.36          7.477
    0.5704              -19.09          25.92          78.04          64.72          3.312          9.621          151.9          27.23          73.23          94.37          7.559
    0.6005               -19.1          25.91          78.02          64.71          3.316          9.611          151.9          27.23          73.16          94.39          7.648
    0.6305              -19.12          25.89          77.98           64.7          3.321          9.599          151.9          27.22          73.08          94.41          7.747
    0.6605              -19.14          25.88          77.95          64.69          3.325          9.587          152.0          27.22          72.99          94.44          7.857
    0.6905              -19.16          25.86          77.91          64.68          3.331          9.573          152.0          27.22          72.89          94.46          7.978
    0.7206              -19.18          25.85          77.87          64.67          3.337          9.557          152.0          27.22          72.77          94.49          8.113
    0.7506               -19.2          25.83          77.82          64.66          3.343           9.54          152.0          27.22          72.65          94.53          8.263
    0.7806              -19.23          25.81          77.77          64.64          3.351          9.521          152.0          27.22          72.51          94.56          8.431
    0.8106              -19.26          25.78          77.71          64.63          3.359          9.499          152.0          27.22          72.35           94.6          8.621
    0.8407               -19.3          25.75          77.64          64.61          3.369          9.474          152.1          27.22          72.17          94.65          8.835
    0.8707              -19.34          25.72          77.56          64.59           3.38          9.446          152.1          27.21          71.97           94.7          9.078
    0.9007              -19.39          25.69          77.47          64.56          3.392          9.414          152.1          27.21          71.74          94.76          9.355
    0.9307              -19.44          25.65          77.37          64.53          3.406          9.378          152.2          27.21          71.48          94.83          9.673
    0.9608               -19.5           25.6          77.26           64.5          3.422          9.335          152.2          27.21          71.17          94.91          10.04
    0.9908              -19.57          25.55          77.12          64.46          3.441          9.286          152.2           27.2          70.82           95.0          10.47
     1.021              -19.65          25.48          76.96          64.42          3.464          9.229          152.3           27.2           70.4           95.1          10.97
     1.051              -19.75          25.41          76.78          64.37           3.49          9.161          152.4          27.19          69.91          95.23          11.56
     1.081              -19.87          25.32          76.55          64.31          3.521           9.08          152.4          27.19          69.33          95.38          12.26
     1.111              -20.01          25.21          76.29          64.23          3.558          8.983          152.5          27.18          68.63          95.56           13.1
     1.141              -20.18          25.08          75.97          64.14          3.603          8.867          152.6          27.17          67.79          95.78          14.11
     1.171              -20.39          24.92          75.57          64.04          3.658          8.724          152.8          27.16          66.76          96.04          15.35
     1.201              -20.64          24.73          75.09           63.9          3.726          8.547          153.0          27.15          65.49          96.37          16.88
     1.231              -20.96          24.49          74.48          63.74          3.811          8.328          153.2          27.14           63.9          96.78          18.79
     1.261              -21.36          24.18          73.72          63.52          3.918          8.051          153.4          27.12           61.9          97.29          21.19
     1.291              -21.87          23.79          72.75          63.26          4.053          7.699          153.8          27.09          59.37          97.94          24.25
     1.321              -22.52          23.29          71.51          62.91          4.227          7.248          154.2          27.06          56.12          98.78          28.16
     1.351              -23.36          22.65          69.92          62.48           4.45           6.67          154.8          27.02          51.94          99.85          33.18
     1.381              -24.43          21.83          67.89          61.91          4.734          5.932          155.5          26.97          46.62          101.2          39.59
     1.411              -25.78          20.81          65.33          61.21          5.092          5.003          156.4           26.9          39.92          102.9          47.65
     1.441              -27.42          19.55          62.21          60.35          5.528          3.872          157.5          26.82          31.75          105.1          57.48
     1.471              -29.32           18.1           58.6          59.35          6.034           2.56          158.7          26.73          22.29          107.5          68.86
     1.501              -31.38          16.53          54.69          58.27          6.581           1.14          160.1          26.63          12.04          110.1          81.19
     1.531              -33.43          14.96          50.78          57.19          7.129        -0.2804          161.5          26.53          1.798          112.8          93.52
     1.561              -35.33          13.51          47.17           56.2          7.634         -1.592          162.7          26.44         -7.665          115.2          104.9
     1.591              -36.97          12.26          44.06          55.34          8.071         -2.724          163.8          26.36         -15.83          117.3          114.7
     1.621              -38.32          11.23           41.5          54.63          8.429         -3.652          164.7           26.3         -22.53          119.0          122.8
     1.651              -39.39          10.41          39.47          54.07          8.713         -4.391          165.4          26.25         -27.86          120.4          129.2
     1.681              -40.23          9.773          37.87          53.63          8.936         -4.969          166.0           26.2         -32.03          121.5          134.2
     1.711              -40.88          9.274          36.63          53.29           9.11         -5.419          166.4          26.17         -35.28          122.3          138.1
     1.741              -41.39          8.885          35.66          53.02          9.245         -5.771          166.7          26.15         -37.82          123.0          141.2
     1.771              -41.79          8.578           34.9          52.81          9.352         -6.048          167.0          26.13         -39.81          123.5          143.6
